<mxfile host="Electron" modified="2023-08-01T14:32:37.854Z" agent="Mozilla/5.0 (Macintosh; Intel Mac OS X 10_15_7) AppleWebKit/537.36 (KHTML, like Gecko) draw.io/21.6.5 Chrome/114.0.5735.243 Electron/25.3.1 Safari/537.36" etag="AMQoRND2Aat6NsfER5m5" version="21.6.5" type="device">
  <diagram name="Page-1" id="UKPigDkfCagMGGLW8aei">
    <mxGraphModel dx="1190" dy="778" grid="1" gridSize="10" guides="1" tooltips="1" connect="1" arrows="1" fold="1" page="1" pageScale="1" pageWidth="850" pageHeight="1100" math="0" shadow="0">
      <root>
        <mxCell id="0" />
        <mxCell id="1" parent="0" />
        <mxCell id="I01KDRXUOSQ22atpnMSx-9" value="" style="rounded=0;whiteSpace=wrap;html=1;" vertex="1" parent="1">
          <mxGeometry x="360" y="250" width="120" height="60" as="geometry" />
        </mxCell>
        <mxCell id="I01KDRXUOSQ22atpnMSx-12" style="rounded=0;orthogonalLoop=1;jettySize=auto;html=1;exitX=1;exitY=0.5;exitDx=0;exitDy=0;entryX=0.95;entryY=0.95;entryDx=0;entryDy=0;entryPerimeter=0;endArrow=none;endFill=0;dashed=1;" edge="1" parent="1" source="I01KDRXUOSQ22atpnMSx-1" target="I01KDRXUOSQ22atpnMSx-10">
          <mxGeometry relative="1" as="geometry" />
        </mxCell>
        <mxCell id="I01KDRXUOSQ22atpnMSx-1" value="SingleVolume" style="rounded=0;whiteSpace=wrap;html=1;" vertex="1" parent="1">
          <mxGeometry x="445" y="120" width="120" height="60" as="geometry" />
        </mxCell>
        <mxCell id="I01KDRXUOSQ22atpnMSx-3" style="edgeStyle=orthogonalEdgeStyle;rounded=0;orthogonalLoop=1;jettySize=auto;html=1;exitX=1;exitY=0.5;exitDx=0;exitDy=0;entryX=0;entryY=0.5;entryDx=0;entryDy=0;" edge="1" parent="1" source="I01KDRXUOSQ22atpnMSx-2" target="I01KDRXUOSQ22atpnMSx-1">
          <mxGeometry relative="1" as="geometry" />
        </mxCell>
        <mxCell id="I01KDRXUOSQ22atpnMSx-13" style="rounded=0;orthogonalLoop=1;jettySize=auto;html=1;exitX=1;exitY=0.5;exitDx=0;exitDy=0;entryX=0.75;entryY=0.3;entryDx=0;entryDy=0;entryPerimeter=0;dashed=1;endArrow=none;endFill=0;" edge="1" parent="1" source="I01KDRXUOSQ22atpnMSx-2" target="I01KDRXUOSQ22atpnMSx-6">
          <mxGeometry relative="1" as="geometry" />
        </mxCell>
        <mxCell id="I01KDRXUOSQ22atpnMSx-2" value="" style="rounded=0;whiteSpace=wrap;html=1;" vertex="1" parent="1">
          <mxGeometry x="350" y="120" width="10" height="60" as="geometry" />
        </mxCell>
        <mxCell id="I01KDRXUOSQ22atpnMSx-5" style="edgeStyle=orthogonalEdgeStyle;rounded=0;orthogonalLoop=1;jettySize=auto;html=1;entryX=0;entryY=0.5;entryDx=0;entryDy=0;" edge="1" parent="1" source="I01KDRXUOSQ22atpnMSx-4" target="I01KDRXUOSQ22atpnMSx-2">
          <mxGeometry relative="1" as="geometry" />
        </mxCell>
        <mxCell id="I01KDRXUOSQ22atpnMSx-11" style="rounded=0;orthogonalLoop=1;jettySize=auto;html=1;exitX=0;exitY=0.5;exitDx=0;exitDy=0;entryX=0.4;entryY=0.2;entryDx=0;entryDy=0;entryPerimeter=0;dashed=1;endArrow=none;endFill=0;" edge="1" parent="1" source="I01KDRXUOSQ22atpnMSx-4" target="I01KDRXUOSQ22atpnMSx-8">
          <mxGeometry relative="1" as="geometry" />
        </mxCell>
        <mxCell id="I01KDRXUOSQ22atpnMSx-4" value="SingleVolume" style="rounded=0;whiteSpace=wrap;html=1;" vertex="1" parent="1">
          <mxGeometry x="150" y="120" width="120" height="60" as="geometry" />
        </mxCell>
        <mxCell id="I01KDRXUOSQ22atpnMSx-7" value="" style="rounded=0;whiteSpace=wrap;html=1;" vertex="1" parent="1">
          <mxGeometry x="240" y="250" width="120" height="60" as="geometry" />
        </mxCell>
        <mxCell id="I01KDRXUOSQ22atpnMSx-6" value="" style="shape=waypoint;sketch=0;fillStyle=solid;size=6;pointerEvents=1;points=[];fillColor=none;resizable=0;rotatable=0;perimeter=centerPerimeter;snapToPoint=1;" vertex="1" parent="1">
          <mxGeometry x="350" y="270" width="20" height="20" as="geometry" />
        </mxCell>
        <mxCell id="I01KDRXUOSQ22atpnMSx-8" value="" style="shape=waypoint;sketch=0;fillStyle=solid;size=6;pointerEvents=1;points=[];fillColor=none;resizable=0;rotatable=0;perimeter=centerPerimeter;snapToPoint=1;" vertex="1" parent="1">
          <mxGeometry x="230" y="270" width="20" height="20" as="geometry" />
        </mxCell>
        <mxCell id="I01KDRXUOSQ22atpnMSx-10" value="" style="shape=waypoint;sketch=0;fillStyle=solid;size=6;pointerEvents=1;points=[];fillColor=none;resizable=0;rotatable=0;perimeter=centerPerimeter;snapToPoint=1;" vertex="1" parent="1">
          <mxGeometry x="470" y="270" width="20" height="20" as="geometry" />
        </mxCell>
        <mxCell id="I01KDRXUOSQ22atpnMSx-14" value="SingleJunction" style="text;html=1;align=center;verticalAlign=middle;resizable=0;points=[];autosize=1;strokeColor=none;fillColor=none;" vertex="1" parent="1">
          <mxGeometry x="310" y="90" width="100" height="30" as="geometry" />
        </mxCell>
        <mxCell id="I01KDRXUOSQ22atpnMSx-15" value="" style="shape=curlyBracket;whiteSpace=wrap;html=1;rounded=1;flipH=1;labelPosition=right;verticalLabelPosition=middle;align=left;verticalAlign=middle;rotation=90;size=0.5;" vertex="1" parent="1">
          <mxGeometry x="350" y="270" width="20" height="120" as="geometry" />
        </mxCell>
        <mxCell id="I01KDRXUOSQ22atpnMSx-16" value="" style="endArrow=none;dashed=1;html=1;rounded=0;exitX=0.25;exitY=1;exitDx=0;exitDy=0;entryX=0.5;entryY=0;entryDx=0;entryDy=0;" edge="1" parent="1" source="I01KDRXUOSQ22atpnMSx-15" target="I01KDRXUOSQ22atpnMSx-7">
          <mxGeometry width="50" height="50" relative="1" as="geometry">
            <mxPoint x="400" y="420" as="sourcePoint" />
            <mxPoint x="450" y="370" as="targetPoint" />
          </mxGeometry>
        </mxCell>
        <mxCell id="I01KDRXUOSQ22atpnMSx-17" value="" style="endArrow=none;dashed=1;html=1;rounded=0;entryX=0.5;entryY=0;entryDx=0;entryDy=0;" edge="1" parent="1" target="I01KDRXUOSQ22atpnMSx-9">
          <mxGeometry width="50" height="50" relative="1" as="geometry">
            <mxPoint x="420" y="320" as="sourcePoint" />
            <mxPoint x="460" y="280" as="targetPoint" />
          </mxGeometry>
        </mxCell>
        <mxCell id="I01KDRXUOSQ22atpnMSx-18" value="Momentum&lt;br&gt;Control Volume" style="text;html=1;align=center;verticalAlign=middle;resizable=0;points=[];autosize=1;strokeColor=none;fillColor=none;" vertex="1" parent="1">
          <mxGeometry x="305" y="333" width="110" height="40" as="geometry" />
        </mxCell>
        <mxCell id="I01KDRXUOSQ22atpnMSx-19" value="" style="shape=curlyBracket;whiteSpace=wrap;html=1;rounded=1;flipH=1;labelPosition=right;verticalLabelPosition=middle;align=left;verticalAlign=middle;rotation=-90;size=0.5;" vertex="1" parent="1">
          <mxGeometry x="495" y="40" width="20" height="120" as="geometry" />
        </mxCell>
        <mxCell id="I01KDRXUOSQ22atpnMSx-20" value="Mass &amp;amp; Energy&lt;br&gt;Control Volume" style="text;html=1;align=center;verticalAlign=middle;resizable=0;points=[];autosize=1;strokeColor=none;fillColor=none;" vertex="1" parent="1">
          <mxGeometry x="450" y="50" width="110" height="40" as="geometry" />
        </mxCell>
      </root>
    </mxGraphModel>
  </diagram>
</mxfile>
